<?xml version="1.0" standalone="no"?>
<!DOCTYPE svg PUBLIC "-//W3C//DTD SVG 20010904//EN"
 "http://www.w3.org/TR/2001/REC-SVG-20010904/DTD/svg10.dtd">
<svg version="1.0" xmlns="http://www.w3.org/2000/svg"
 width="302.000000pt" height="351.000000pt" viewBox="0 0 302.000000 351.000000"
 preserveAspectRatio="xMidYMid meet">

<g transform="translate(0.000000,351.000000) scale(0.100000,-0.100000)"
fill="#000000" stroke="none">
<path d="M1132 2648 c-14 -14 -16 -54 -3 -62 5 -3 44 -13 86 -21 42 -8 91 -23
109 -34 62 -39 61 -28 61 -841 0 -721 0 -736 -20 -770 -28 -46 -71 -70 -151
-81 -78 -11 -96 -22 -92 -58 l3 -26 387 -3 388 -2 6 26 c10 37 -11 52 -89 63
-101 14 -138 37 -159 97 -16 45 -17 110 -15 784 2 690 3 737 20 768 22 40 78
68 157 78 30 4 63 11 73 16 20 10 23 48 5 66 -17 17 -749 17 -766 0z"/>
</g>
</svg>
